<?xml version="1.0" encoding="utf-8"?>
<!-- Generator: Adobe Illustrator 27.5.0, SVG Export Plug-In . SVG Version: 6.00 Build 0)  -->
<svg version="1.1" xmlns="http://www.w3.org/2000/svg" xmlns:xlink="http://www.w3.org/1999/xlink" x="0px" y="0px"
	 viewBox="0 0 500 500" style="enable-background:new 0 0 500 500;" xml:space="preserve">
<g id="Floor">
	
		<line style="fill:none;stroke:#263238;stroke-width:2.5;stroke-linecap:round;stroke-linejoin:round;stroke-miterlimit:10;" x1="38.01" y1="469.454" x2="461.99" y2="469.454"/>
</g>
<g id="Device">
	<g>
		<path style="fill:#EC644E;" d="M445.746,34.2h-160.43c-8.952,0-16.226,7.394-16.226,16.534v330.231
			c0,9.114,7.274,16.526,16.226,16.526h160.43c8.952,0,16.243-7.411,16.243-16.526V50.735C461.99,41.595,454.698,34.2,445.746,34.2z
			 M451.831,370.756c0,8.686-6.504,15.721-14.532,15.721H293.78c-8.045,0-14.557-7.035-14.557-15.721V63.246
			c0-17.707,6.513-18.571,14.557-18.571h28.755c1.669,0,3.038,1.9,3.038,4.253v1.018c0,5.511,3.013,5.528,6.718,5.528h66.479
			c3.74,0,6.735-0.017,6.735-5.528v-1.018c0-2.354,1.352-4.253,3.047-4.253H437.3c8.027,0,14.532,2.354,14.532,18.571V370.756z"/>
		<path style="fill:#FFFFFF;" d="M451.813,370.756c0,8.686-6.504,15.721-14.532,15.721H293.762c-8.045,0-14.557-7.035-14.557-15.721
			V63.246c0-17.707,6.513-18.571,14.557-18.571h28.755c1.669,0,3.038,1.9,3.038,4.253v1.018c0,5.511,3.012,5.528,6.718,5.528h66.479
			c3.74,0,6.735-0.017,6.735-5.528v-1.018c0-2.354,1.352-4.253,3.047-4.253h28.747c8.027,0,14.532,2.354,14.532,18.571V370.756z"/>
		<path style="fill:#FFFFFF;" d="M445.743,34.197h-5.734c8.952,0,16.243,7.394,16.243,16.534v330.231
			c0,9.114-7.292,16.526-16.243,16.526h5.734c8.952,0,16.243-7.411,16.243-16.526V50.731
			C461.986,41.591,454.695,34.197,445.743,34.197z M399.769,48.925v1.018c0,5.511-2.995,5.528-6.735,5.528h5.734
			c3.74,0,6.735-0.017,6.735-5.528v-1.018c0-2.354,1.352-4.253,3.047-4.253h-5.734C401.121,44.672,399.769,46.572,399.769,48.925z"
			/>
		<path style="fill:#EC644E;" d="M325.57,49.944v-1.018c0-2.354-1.369-4.253-3.038-4.253h-5.734c1.669,0,3.038,1.9,3.038,4.253
			v1.018c0,5.511,3.012,5.528,6.718,5.528h5.734C328.583,55.472,325.57,55.455,325.57,49.944z"/>
		<path style="fill:#9ABAE3;" d="M451.809,63.246v54.021c-7.848,1.669-28.576,4.485-57.639-3.577
			c-3.449-0.958-6.855-1.883-10.227-2.773c-36.5-9.696-68.61-15.319-104.734-8.96V63.246c0-17.707,6.513-18.571,14.557-18.571
			h28.755c1.669,0,3.038,1.9,3.038,4.253v1.018c0,5.511,3.013,5.528,6.718,5.528h66.471c3.74,0,6.735-0.017,6.735-5.528v-1.018
			c0-2.354,1.352-4.253,3.047-4.253h28.746C445.305,44.675,451.809,47.029,451.809,63.246z"/>
		<path style="fill:#9ABAE3;" d="M422.344,140.628c0,3.809-3.088,6.898-6.898,6.898c-3.809,0-6.897-3.088-6.897-6.898
			c0-3.809,3.088-6.897,6.897-6.897C419.256,133.731,422.344,136.819,422.344,140.628z"/>
		<path style="fill:#9ABAE3;" d="M327.416,112.237c0,3.809-3.088,6.897-6.897,6.897s-6.897-3.088-6.897-6.897
			c0-3.809,3.088-6.897,6.897-6.897S327.416,108.427,327.416,112.237z"/>
		<g>
			
				<ellipse transform="matrix(0.9868 -0.1619 0.1619 0.9868 -17.5918 61.0025)" style="fill:#EC644E;" cx="365.509" cy="138.443" rx="34.104" ry="34.103"/>
			<g>
				<g>
					<path style="fill:#FFFFFF;" d="M378.751,135.52c0,7.314-5.929,13.244-13.243,13.244c-7.314,0-13.243-5.929-13.243-13.244
						c0-7.314,5.929-13.243,13.243-13.243C372.823,122.278,378.751,128.206,378.751,135.52z"/>
					<path style="fill:#FFFFFF;" d="M387.296,164.678c-5.91,4.91-13.5,7.87-21.79,7.87c-8.29,0-15.87-2.96-21.78-7.87
						c2.93-9.22,11.57-15.91,21.79-15.91C375.726,148.768,384.376,155.458,387.296,164.678z"/>
				</g>
			</g>
		</g>
		<g>
			
				<polygon style="fill:#FFFFFF;stroke:#FFFFFF;stroke-width:2.5;stroke-linecap:round;stroke-linejoin:round;stroke-miterlimit:10;" points="
				305.244,70.413 303.644,70.413 303.644,76.033 295.856,76.033 295.856,70.413 294.255,70.413 299.75,65.86 			"/>
			<g>
				
					<line style="fill:none;stroke:#FFFFFF;stroke-width:2.5;stroke-linecap:round;stroke-linejoin:round;stroke-miterlimit:10;" x1="425.948" y1="67.319" x2="436.763" y2="67.319"/>
				
					<line style="fill:none;stroke:#FFFFFF;stroke-width:2.5;stroke-linecap:round;stroke-linejoin:round;stroke-miterlimit:10;" x1="425.948" y1="71.231" x2="436.763" y2="71.231"/>
				
					<line style="fill:none;stroke:#FFFFFF;stroke-width:2.5;stroke-linecap:round;stroke-linejoin:round;stroke-miterlimit:10;" x1="425.948" y1="75.143" x2="436.763" y2="75.143"/>
			</g>
		</g>
		<g>
			<g>
				
					<path style="fill:#EC644E;stroke:#263238;stroke-width:2.5;stroke-linecap:round;stroke-linejoin:round;stroke-miterlimit:10;" d="
					M393.152,310.017h-55.481c-3.121,0-5.651-2.53-5.651-5.651v-8.757c0-3.121,2.53-5.651,5.651-5.651h55.481
					c3.121,0,5.651,2.53,5.651,5.651v8.757C398.804,307.487,396.273,310.017,393.152,310.017z"/>
				<g>
					<path style="fill:#FFFFFF;" d="M348.889,297.25c-0.244-0.146-0.496-0.276-0.756-0.39c-0.22-0.098-0.465-0.189-0.738-0.274
						c-0.273-0.086-0.539-0.128-0.799-0.128c-0.211,0-0.38,0.033-0.506,0.098c-0.126,0.065-0.189,0.175-0.189,0.329
						c0,0.114,0.037,0.207,0.11,0.28c0.073,0.073,0.179,0.141,0.317,0.201c0.138,0.061,0.307,0.12,0.506,0.177
						c0.199,0.057,0.424,0.126,0.677,0.207c0.398,0.122,0.758,0.256,1.079,0.403c0.321,0.146,0.595,0.319,0.823,0.518
						c0.228,0.199,0.402,0.441,0.525,0.725c0.122,0.285,0.183,0.63,0.183,1.036c0,0.52-0.096,0.957-0.287,1.311
						c-0.191,0.353-0.443,0.636-0.756,0.848c-0.313,0.211-0.667,0.364-1.061,0.457c-0.394,0.093-0.791,0.14-1.189,0.14
						c-0.317,0-0.642-0.024-0.976-0.073c-0.333-0.049-0.665-0.118-0.994-0.207c-0.329-0.089-0.646-0.195-0.951-0.317
						c-0.305-0.122-0.587-0.26-0.848-0.415l1.024-2.085c0.284,0.179,0.581,0.337,0.89,0.476c0.26,0.122,0.555,0.232,0.884,0.329
						s0.665,0.146,1.006,0.146c0.26,0,0.441-0.034,0.543-0.104c0.102-0.069,0.152-0.16,0.152-0.274c0-0.122-0.051-0.226-0.152-0.311
						c-0.102-0.086-0.242-0.16-0.421-0.226c-0.179-0.065-0.384-0.13-0.616-0.195c-0.232-0.065-0.478-0.142-0.738-0.232
						c-0.382-0.13-0.712-0.27-0.988-0.421c-0.277-0.15-0.504-0.321-0.683-0.512c-0.179-0.191-0.311-0.409-0.396-0.652
						c-0.085-0.244-0.128-0.524-0.128-0.841c0-0.48,0.087-0.903,0.262-1.268c0.175-0.366,0.413-0.671,0.714-0.915
						c0.301-0.244,0.644-0.429,1.03-0.555c0.386-0.126,0.795-0.189,1.226-0.189c0.317,0,0.626,0.03,0.927,0.091
						c0.3,0.061,0.591,0.138,0.872,0.232c0.28,0.094,0.543,0.195,0.786,0.305c0.244,0.11,0.464,0.214,0.659,0.311L348.889,297.25z"
						/>
					<path style="fill:#FFFFFF;" d="M351.864,296.128v-1.951h2.317v1.951H351.864z M351.864,303.079v-6.414h2.317v6.414H351.864z"/>
					<path style="fill:#FFFFFF;" d="M358.669,303.079c-0.415,0-0.795-0.083-1.14-0.25c-0.346-0.167-0.64-0.394-0.884-0.683
						c-0.244-0.289-0.433-0.628-0.567-1.018c-0.134-0.39-0.201-0.813-0.201-1.268c0-0.48,0.073-0.923,0.22-1.329
						c0.146-0.406,0.352-0.756,0.616-1.049c0.264-0.293,0.579-0.522,0.945-0.689c0.366-0.167,0.768-0.25,1.207-0.25
						c0.463,0,0.87,0.091,1.22,0.274c0.349,0.183,0.626,0.449,0.829,0.799v-0.951h2.012v5.829c0,0.504-0.094,0.959-0.28,1.366
						c-0.187,0.406-0.451,0.752-0.793,1.036c-0.342,0.284-0.752,0.506-1.232,0.664c-0.48,0.159-1.012,0.238-1.598,0.238
						c-0.683,0-1.276-0.106-1.78-0.317c-0.504-0.212-0.951-0.516-1.341-0.914l1.22-1.268c0.236,0.219,0.518,0.404,0.848,0.555
						c0.329,0.15,0.681,0.225,1.055,0.225c0.211,0,0.413-0.029,0.604-0.085c0.191-0.057,0.36-0.148,0.506-0.274
						c0.146-0.126,0.262-0.29,0.348-0.494c0.085-0.203,0.128-0.447,0.128-0.732v-0.415c-0.187,0.341-0.453,0.594-0.799,0.756
						C359.463,302.997,359.083,303.079,358.669,303.079z M359.498,301.25c0.236,0,0.441-0.055,0.616-0.165
						c0.175-0.11,0.339-0.274,0.494-0.494v-1.146c-0.114-0.293-0.283-0.524-0.506-0.695c-0.224-0.171-0.457-0.256-0.701-0.256
						c-0.163,0-0.315,0.039-0.457,0.116c-0.143,0.077-0.267,0.179-0.372,0.305c-0.106,0.126-0.187,0.276-0.244,0.451
						c-0.057,0.175-0.085,0.36-0.085,0.555c0,0.398,0.118,0.719,0.354,0.963C358.831,301.128,359.132,301.25,359.498,301.25z"/>
					<path style="fill:#FFFFFF;" d="M371.399,303.079h-2.317v-3.61c0-0.317-0.071-0.546-0.213-0.689
						c-0.142-0.142-0.307-0.213-0.494-0.213c-0.195,0-0.402,0.085-0.622,0.256c-0.219,0.171-0.382,0.39-0.488,0.658v3.597h-2.317
						v-6.414h2.085v0.951c0.228-0.349,0.547-0.616,0.957-0.799c0.41-0.183,0.896-0.274,1.457-0.274c0.439,0,0.787,0.079,1.043,0.238
						c0.256,0.159,0.451,0.356,0.585,0.591c0.134,0.236,0.221,0.488,0.262,0.756c0.041,0.268,0.061,0.512,0.061,0.732V303.079z"/>
					<path style="fill:#FFFFFF;" d="M376.972,296.128v-1.951h2.317v1.951H376.972z M376.972,303.079v-6.414h2.317v6.414H376.972z"/>
					<path style="fill:#FFFFFF;" d="M387.764,303.079h-2.317v-3.61c0-0.317-0.071-0.546-0.213-0.689
						c-0.142-0.142-0.307-0.213-0.494-0.213c-0.195,0-0.402,0.085-0.622,0.256c-0.219,0.171-0.382,0.39-0.488,0.658v3.597h-2.317
						v-6.414h2.085v0.951c0.227-0.349,0.547-0.616,0.957-0.799c0.41-0.183,0.896-0.274,1.457-0.274c0.439,0,0.787,0.079,1.043,0.238
						c0.256,0.159,0.451,0.356,0.585,0.591c0.134,0.236,0.221,0.488,0.262,0.756c0.041,0.268,0.061,0.512,0.061,0.732V303.079z"/>
				</g>
			</g>
			<g>
				<path style="fill:#EC644E;" d="M338.575,185.281c-0.34-0.204-0.691-0.385-1.054-0.544c-0.306-0.136-0.649-0.263-1.028-0.382
					c-0.38-0.119-0.751-0.179-1.113-0.179c-0.295,0-0.53,0.046-0.706,0.136c-0.176,0.091-0.263,0.244-0.263,0.459
					c0,0.159,0.051,0.289,0.153,0.391c0.102,0.102,0.249,0.196,0.442,0.281c0.193,0.085,0.428,0.167,0.706,0.246
					c0.277,0.079,0.592,0.176,0.943,0.289c0.555,0.17,1.057,0.357,1.505,0.561c0.447,0.204,0.83,0.445,1.147,0.723
					c0.317,0.278,0.561,0.615,0.731,1.011c0.17,0.397,0.255,0.878,0.255,1.445c0,0.725-0.133,1.335-0.4,1.827
					c-0.266,0.493-0.618,0.887-1.054,1.181c-0.436,0.295-0.929,0.507-1.478,0.637c-0.55,0.13-1.103,0.196-1.657,0.196
					c-0.442,0-0.896-0.034-1.36-0.102c-0.465-0.068-0.926-0.164-1.386-0.289c-0.459-0.125-0.901-0.272-1.326-0.442
					c-0.425-0.17-0.819-0.363-1.181-0.578l1.428-2.907c0.396,0.249,0.81,0.47,1.241,0.663c0.363,0.17,0.773,0.323,1.232,0.459
					c0.459,0.136,0.926,0.204,1.402,0.204c0.363,0,0.614-0.048,0.756-0.145c0.142-0.096,0.213-0.224,0.213-0.382
					c0-0.17-0.071-0.315-0.213-0.434c-0.142-0.119-0.337-0.224-0.586-0.315c-0.249-0.09-0.535-0.181-0.858-0.272
					c-0.323-0.091-0.666-0.198-1.028-0.323c-0.533-0.181-0.992-0.377-1.377-0.586c-0.385-0.21-0.703-0.448-0.952-0.714
					c-0.249-0.266-0.434-0.569-0.552-0.909c-0.119-0.34-0.178-0.731-0.178-1.173c0-0.669,0.121-1.258,0.365-1.768
					c0.244-0.51,0.575-0.935,0.994-1.275c0.419-0.34,0.898-0.598,1.436-0.773c0.538-0.176,1.108-0.264,1.708-0.264
					c0.442,0,0.873,0.043,1.292,0.128c0.419,0.085,0.825,0.193,1.215,0.323c0.391,0.13,0.757,0.272,1.096,0.425
					c0.34,0.153,0.646,0.297,0.918,0.434L338.575,185.281z"/>
				<path style="fill:#EC644E;" d="M342.943,193.406v-12.068h3.315v12.068H342.943z"/>
				<path style="fill:#EC644E;" d="M357.713,192.403c-0.861,0.725-1.852,1.088-2.974,1.088c-0.782,0-1.53-0.139-2.244-0.416
					c-0.714-0.278-1.338-0.683-1.87-1.215c-0.533-0.533-0.958-1.184-1.275-1.955c-0.317-0.77-0.476-1.649-0.476-2.635
					c0-0.85,0.158-1.64,0.476-2.371c0.317-0.731,0.753-1.365,1.309-1.904c0.555-0.538,1.21-0.963,1.963-1.275
					c0.754-0.312,1.567-0.468,2.44-0.468c0.544,0,1.065,0.06,1.563,0.179c0.499,0.119,0.96,0.295,1.385,0.527
					c0.426,0.232,0.807,0.51,1.148,0.833c0.34,0.323,0.617,0.688,0.833,1.096l-2.465,1.887c-0.238-0.476-0.595-0.858-1.071-1.147
					c-0.476-0.289-0.98-0.433-1.513-0.433c-0.397,0-0.759,0.079-1.088,0.238c-0.329,0.159-0.612,0.38-0.85,0.663
					c-0.238,0.283-0.425,0.62-0.561,1.011c-0.135,0.391-0.204,0.819-0.204,1.283c0,0.476,0.068,0.907,0.204,1.292
					c0.136,0.385,0.326,0.717,0.57,0.995c0.244,0.278,0.535,0.493,0.876,0.646c0.34,0.153,0.719,0.229,1.139,0.229
					c0.963,0,1.813-0.397,2.55-1.19h-2.091v-2.38h4.963v6.425h-2.737V192.403z"/>
				<path style="fill:#EC644E;" d="M366.587,187.474v5.932h-3.315v-12.068h2.584l4.844,6.136v-6.136h3.315v12.068h-2.635
					L366.587,187.474z"/>
				<path style="fill:#EC644E;" d="M382.292,193.406v-12.068h3.315v12.068H382.292z"/>
				<path style="fill:#EC644E;" d="M392.185,187.474v5.932h-3.315v-12.068h2.584l4.844,6.136v-6.136h3.315v12.068h-2.635
					L392.185,187.474z"/>
			</g>
			<g>
				<g>
					
						<path style="fill:#FFFFFF;stroke:#9ABAE3;stroke-width:2.5;stroke-linecap:round;stroke-linejoin:round;stroke-miterlimit:10;" d="
						M421.87,232.845H308.953c-3.208,0-5.809-2.601-5.809-5.809v-5.078c0-3.208,2.601-5.809,5.809-5.809h112.917
						c3.208,0,5.809,2.601,5.809,5.809v5.078C427.679,230.245,425.079,232.845,421.87,232.845z"/>
				</g>
				<g>
					<g>
						<path style="fill:#9ABAE3;" d="M315.127,222.484c0,1.52-1.232,2.752-2.752,2.752c-1.52,0-2.752-1.232-2.752-2.752
							c0-1.52,1.232-2.752,2.752-2.752C313.895,219.732,315.127,220.964,315.127,222.484z"/>
						<path style="fill:#9ABAE3;" d="M316.903,228.542h-9.053c0.609-1.916,2.404-3.306,4.528-3.306
							C314.499,225.236,316.296,226.626,316.903,228.542z"/>
					</g>
				</g>
				<g>
					<path style="fill:#263238;" d="M322.539,226.592c-0.409,0-0.72-0.124-0.935-0.371c-0.214-0.248-0.322-0.609-0.322-1.084v-2.65
						h1.455v2.321c0,0.179,0.039,0.317,0.119,0.414c0.079,0.097,0.188,0.145,0.325,0.145c0.112,0,0.227-0.025,0.345-0.077
						c0.117-0.051,0.235-0.163,0.352-0.337v-2.466h1.455v2.421c0,0.138,0.02,0.234,0.061,0.287c0.041,0.054,0.112,0.086,0.215,0.096
						v1.226c-0.25,0.051-0.455,0.076-0.613,0.076c-0.495,0-0.781-0.186-0.858-0.559l-0.031-0.145c-0.189,0.25-0.414,0.43-0.674,0.54
						C323.175,226.537,322.876,226.592,322.539,226.592z"/>
					<path style="fill:#263238;" d="M328.406,226.592c-0.352,0-0.697-0.057-1.034-0.172c-0.337-0.115-0.623-0.282-0.858-0.502
						l0.498-0.873c0.25,0.169,0.492,0.299,0.724,0.391c0.232,0.092,0.445,0.138,0.639,0.138c0.204,0,0.307-0.064,0.307-0.191
						c0-0.071-0.04-0.133-0.119-0.184c-0.079-0.051-0.234-0.11-0.463-0.176c-0.286-0.082-0.525-0.162-0.716-0.241
						c-0.192-0.079-0.347-0.165-0.467-0.257c-0.12-0.092-0.206-0.194-0.257-0.306c-0.051-0.112-0.077-0.245-0.077-0.398
						c0-0.204,0.041-0.393,0.122-0.567c0.082-0.173,0.195-0.324,0.341-0.452c0.145-0.128,0.319-0.226,0.521-0.295
						c0.202-0.069,0.423-0.103,0.663-0.103c0.296,0,0.578,0.038,0.846,0.115c0.268,0.077,0.537,0.232,0.808,0.467l-0.551,0.873
						c-0.25-0.163-0.46-0.28-0.628-0.349c-0.169-0.069-0.327-0.103-0.475-0.103c-0.087,0-0.158,0.017-0.215,0.05
						c-0.056,0.033-0.084,0.086-0.084,0.157c0,0.077,0.041,0.139,0.123,0.188c0.082,0.049,0.242,0.103,0.482,0.165
						c0.291,0.077,0.536,0.157,0.735,0.241c0.199,0.084,0.359,0.176,0.479,0.276c0.12,0.1,0.206,0.212,0.257,0.337
						c0.051,0.125,0.077,0.269,0.077,0.433c0,0.21-0.038,0.396-0.115,0.559c-0.077,0.163-0.188,0.304-0.333,0.421
						s-0.322,0.207-0.529,0.268C328.9,226.562,328.667,226.592,328.406,226.592z"/>
					<path style="fill:#263238;" d="M333.102,226.592c-0.352,0-0.667-0.055-0.942-0.165c-0.276-0.11-0.507-0.259-0.693-0.448
						c-0.187-0.189-0.328-0.406-0.425-0.651c-0.097-0.245-0.146-0.503-0.146-0.774c0-0.291,0.047-0.567,0.142-0.827
						c0.094-0.26,0.235-0.487,0.421-0.682c0.186-0.194,0.416-0.349,0.689-0.463s0.591-0.172,0.954-0.172
						c0.357,0,0.674,0.057,0.95,0.172c0.276,0.115,0.507,0.268,0.693,0.46c0.186,0.191,0.327,0.414,0.421,0.666
						c0.095,0.253,0.142,0.517,0.142,0.793c0,0.077-0.004,0.155-0.011,0.234c-0.008,0.079-0.017,0.149-0.027,0.211h-2.826
						c0.015,0.214,0.094,0.369,0.237,0.463c0.143,0.095,0.299,0.142,0.467,0.142c0.158,0,0.307-0.036,0.448-0.107
						c0.14-0.072,0.234-0.171,0.28-0.299l1.233,0.352c-0.163,0.322-0.415,0.585-0.754,0.789
						C334.014,226.49,333.597,226.592,333.102,226.592z M333.745,224.072c-0.025-0.194-0.097-0.347-0.214-0.46
						c-0.117-0.112-0.268-0.168-0.452-0.168c-0.184,0-0.335,0.056-0.452,0.168c-0.117,0.112-0.189,0.266-0.214,0.46H333.745z"/>
					<path style="fill:#263238;" d="M339.053,223.727c-0.281,0-0.536,0.031-0.766,0.092c-0.23,0.061-0.401,0.163-0.513,0.306v2.39
						h-1.455v-4.029h1.333v0.766c0.143-0.271,0.32-0.479,0.532-0.624c0.212-0.146,0.44-0.218,0.686-0.218
						c0.097,0,0.158,0.003,0.184,0.008V223.727z"/>
					<path style="fill:#263238;" d="M344.093,226.516h-1.455v-2.267c0-0.199-0.045-0.343-0.134-0.433
						c-0.089-0.089-0.193-0.134-0.31-0.134c-0.122,0-0.253,0.054-0.391,0.161c-0.138,0.107-0.24,0.245-0.306,0.414v2.26h-1.455
						v-4.029h1.31v0.598c0.143-0.22,0.343-0.387,0.601-0.502c0.258-0.115,0.563-0.172,0.915-0.172c0.276,0,0.494,0.05,0.655,0.149
						c0.161,0.1,0.283,0.223,0.368,0.371c0.084,0.148,0.139,0.306,0.165,0.475c0.026,0.168,0.038,0.322,0.038,0.46V226.516z"/>
					<path style="fill:#263238;" d="M346.521,226.592c-0.199,0-0.386-0.033-0.559-0.099c-0.174-0.066-0.323-0.157-0.448-0.272
						c-0.125-0.115-0.223-0.251-0.295-0.41c-0.072-0.158-0.107-0.329-0.107-0.513c0-0.204,0.043-0.391,0.13-0.559
						c0.087-0.169,0.207-0.314,0.36-0.437s0.336-0.217,0.548-0.283c0.212-0.066,0.445-0.1,0.701-0.1
						c0.327,0,0.597,0.051,0.812,0.153v-0.123c0-0.189-0.055-0.329-0.165-0.421c-0.11-0.092-0.287-0.138-0.532-0.138
						c-0.23,0-0.442,0.037-0.636,0.111c-0.194,0.074-0.398,0.183-0.613,0.326l-0.421-0.904c0.531-0.342,1.136-0.513,1.815-0.513
						c0.643,0,1.138,0.143,1.486,0.429c0.347,0.286,0.521,0.715,0.521,1.287v0.781c0,0.138,0.02,0.234,0.061,0.287
						c0.041,0.054,0.112,0.086,0.214,0.096v1.226c-0.117,0.025-0.229,0.045-0.333,0.057c-0.105,0.013-0.198,0.019-0.28,0.019
						c-0.26,0-0.458-0.047-0.594-0.142c-0.135-0.094-0.223-0.234-0.264-0.417l-0.031-0.145c-0.179,0.23-0.386,0.405-0.62,0.525
						C347.037,226.532,346.786,226.592,346.521,226.592z M346.958,225.551c0.087,0,0.176-0.014,0.268-0.042
						c0.092-0.028,0.173-0.065,0.245-0.111c0.056-0.041,0.102-0.085,0.138-0.134c0.036-0.049,0.054-0.098,0.054-0.149v-0.299
						c-0.087-0.031-0.181-0.056-0.284-0.077c-0.102-0.02-0.194-0.031-0.276-0.031c-0.179,0-0.327,0.044-0.444,0.13
						c-0.118,0.087-0.176,0.197-0.176,0.329c0,0.112,0.045,0.204,0.134,0.276C346.706,225.515,346.82,225.551,346.958,225.551z"/>
					<path style="fill:#263238;" d="M356.953,226.516h-1.455v-2.267c0-0.199-0.04-0.343-0.119-0.433
						c-0.079-0.089-0.175-0.134-0.287-0.134c-0.117,0-0.241,0.054-0.371,0.161c-0.13,0.107-0.226,0.245-0.287,0.414v2.26h-1.455
						v-2.267c0-0.199-0.04-0.343-0.119-0.433c-0.079-0.089-0.175-0.134-0.287-0.134c-0.117,0-0.241,0.054-0.371,0.161
						c-0.13,0.107-0.226,0.245-0.287,0.414v2.26h-1.455v-4.029h1.31v0.598c0.143-0.22,0.34-0.387,0.59-0.502
						c0.25-0.115,0.546-0.172,0.889-0.172c0.163,0,0.306,0.019,0.429,0.057c0.123,0.038,0.229,0.091,0.318,0.157
						c0.089,0.066,0.161,0.14,0.214,0.222c0.054,0.082,0.096,0.169,0.126,0.26c0.143-0.219,0.338-0.391,0.586-0.513
						c0.248-0.123,0.53-0.184,0.846-0.184c0.265,0,0.476,0.05,0.632,0.149c0.156,0.1,0.275,0.223,0.356,0.371
						c0.082,0.148,0.135,0.306,0.161,0.475c0.026,0.168,0.038,0.322,0.038,0.46V226.516z"/>
					<path style="fill:#263238;" d="M360.178,226.592c-0.352,0-0.667-0.055-0.942-0.165c-0.276-0.11-0.507-0.259-0.693-0.448
						c-0.187-0.189-0.328-0.406-0.425-0.651c-0.097-0.245-0.145-0.503-0.145-0.774c0-0.291,0.047-0.567,0.142-0.827
						c0.094-0.26,0.235-0.487,0.421-0.682c0.186-0.194,0.416-0.349,0.689-0.463s0.591-0.172,0.954-0.172
						c0.357,0,0.674,0.057,0.95,0.172c0.276,0.115,0.507,0.268,0.693,0.46c0.186,0.191,0.327,0.414,0.421,0.666
						c0.094,0.253,0.142,0.517,0.142,0.793c0,0.077-0.004,0.155-0.011,0.234c-0.008,0.079-0.017,0.149-0.027,0.211h-2.826
						c0.015,0.214,0.094,0.369,0.237,0.463c0.143,0.095,0.299,0.142,0.467,0.142c0.158,0,0.307-0.036,0.448-0.107
						c0.14-0.072,0.234-0.171,0.28-0.299l1.233,0.352c-0.163,0.322-0.415,0.585-0.754,0.789
						C361.091,226.49,360.673,226.592,360.178,226.592z M360.822,224.072c-0.026-0.194-0.097-0.347-0.214-0.46
						c-0.117-0.112-0.268-0.168-0.452-0.168c-0.184,0-0.335,0.056-0.452,0.168c-0.117,0.112-0.189,0.266-0.214,0.46H360.822z"/>
				</g>
			</g>
			<g>
				<g>
					
						<path style="fill:#FFFFFF;stroke:#9ABAE3;stroke-width:2.5;stroke-linecap:round;stroke-linejoin:round;stroke-miterlimit:10;" d="
						M421.87,260.227H308.953c-3.208,0-5.809-2.601-5.809-5.809v-5.079c0-3.208,2.601-5.809,5.809-5.809h112.917
						c3.208,0,5.809,2.601,5.809,5.809v5.079C427.679,257.626,425.079,260.227,421.87,260.227z"/>
				</g>
				<g>
					<g>
						<rect x="308.809" y="250.645" style="fill:#9ABAE3;" width="6.318" height="5.362"/>
						<path style="fill:#9ABAE3;" d="M312.546,246.954c1.425,0,2.58,1.155,2.58,2.58l0,0h-1.14l0,0c0-0.795-0.645-1.44-1.44-1.44
							h-1.16c-0.795,0-1.44,0.645-1.44,1.44v1.65h-1.14v-1.65c0-1.425,1.155-2.58,2.58-2.58H312.546z"/>
						<path style="fill:#FFFFFF;" d="M312.69,252.875c0,0.399-0.323,0.722-0.722,0.722c-0.399,0-0.722-0.323-0.722-0.722
							c0-0.399,0.323-0.722,0.722-0.722C312.367,252.153,312.69,252.477,312.69,252.875z"/>
						<polygon style="fill:#FFFFFF;" points="312.601,254.76 311.33,254.76 311.754,253.097 312.177,253.097 						"/>
					</g>
					<g>
						<path style="fill:#263238;" d="M321.033,253.308l0.692-1.102l-1.017-0.297l0.339-1.088l1.06,0.509l-0.099-1.159h1.357
							l-0.099,1.159l1.06-0.509l0.339,1.088l-1.017,0.297l0.692,1.102l-0.975,0.636l-0.678-1.173l-0.678,1.173L321.033,253.308z"/>
					</g>
					<g>
						<path style="fill:#263238;" d="M330.385,253.308l0.692-1.102l-1.017-0.297l0.339-1.088l1.06,0.509l-0.099-1.159h1.357
							l-0.099,1.159l1.06-0.509l0.339,1.088l-1.017,0.297l0.692,1.102l-0.975,0.636l-0.678-1.173l-0.678,1.173L330.385,253.308z"/>
					</g>
					<g>
						<path style="fill:#263238;" d="M339.738,253.308l0.692-1.102l-1.017-0.297l0.339-1.088l1.059,0.509l-0.099-1.159h1.356
							l-0.099,1.159l1.059-0.509l0.339,1.088l-1.017,0.297l0.692,1.102l-0.975,0.636l-0.678-1.173l-0.678,1.173L339.738,253.308z"/>
					</g>
					<g>
						<path style="fill:#263238;" d="M349.091,253.308l0.692-1.102l-1.017-0.297l0.339-1.088l1.06,0.509l-0.099-1.159h1.356
							l-0.099,1.159l1.06-0.509l0.339,1.088l-1.017,0.297l0.692,1.102l-0.975,0.636l-0.678-1.173l-0.678,1.173L349.091,253.308z"/>
					</g>
					<g>
						<path style="fill:#263238;" d="M358.443,253.308l0.692-1.102l-1.017-0.297l0.339-1.088l1.06,0.509l-0.099-1.159h1.356
							l-0.099,1.159l1.06-0.509l0.339,1.088l-1.017,0.297l0.692,1.102l-0.975,0.636l-0.678-1.173l-0.678,1.173L358.443,253.308z"/>
					</g>
					<g>
						<path style="fill:#263238;" d="M367.796,253.308l0.692-1.102l-1.017-0.297l0.339-1.088l1.059,0.509l-0.099-1.159h1.356
							l-0.099,1.159l1.06-0.509l0.339,1.088l-1.017,0.297l0.692,1.102l-0.975,0.636l-0.678-1.173l-0.678,1.173L367.796,253.308z"/>
					</g>
				</g>
			</g>
			
				<line style="fill:none;stroke:#9ABAE3;stroke-width:2.5;stroke-linecap:round;stroke-linejoin:round;stroke-miterlimit:10;" x1="304.698" y1="273.584" x2="426.32" y2="273.584"/>
		</g>
		<path style="fill:none;stroke:#263238;stroke-width:2.5;stroke-linecap:round;stroke-linejoin:round;stroke-miterlimit:10;" d="
			M445.746,34.2h-160.43c-8.952,0-16.226,7.394-16.226,16.534v330.231c0,9.114,7.274,16.526,16.226,16.526h160.43
			c8.952,0,16.243-7.411,16.243-16.526V50.735C461.99,41.595,454.698,34.2,445.746,34.2z M451.831,370.756
			c0,8.686-6.504,15.721-14.532,15.721H293.78c-8.045,0-14.557-7.035-14.557-15.721V63.246c0-17.707,6.513-18.571,14.557-18.571
			h28.755c1.669,0,3.038,1.9,3.038,4.253v1.018c0,5.511,3.013,5.528,6.718,5.528h66.479c3.74,0,6.735-0.017,6.735-5.528v-1.018
			c0-2.354,1.352-4.253,3.047-4.253H437.3c8.027,0,14.532,2.354,14.532,18.571V370.756z"/>
	</g>
</g>
<g id="Plant">
	<g>
		<g>
			
				<path style="fill:#9ABAE3;stroke:#263238;stroke-width:2.5;stroke-linecap:round;stroke-linejoin:round;stroke-miterlimit:10;" d="
				M421.632,413.624c0,0-29.194-11.587-40.782-25.131c0,0,24.228,0.602,31.602,8.126
				C419.826,404.143,421.632,413.624,421.632,413.624z"/>
			
				<path style="fill:#9ABAE3;stroke:#263238;stroke-width:2.5;stroke-linecap:round;stroke-linejoin:round;stroke-miterlimit:10;" d="
				M438.157,414.691c0,0,4.063-12.791,8.277-18.811s19.864-18.77,19.864-18.77s-9.029,18.318-12.039,22.08
				C451.249,402.953,438.157,414.691,438.157,414.691z"/>
			
				<path style="fill:#9ABAE3;stroke:#263238;stroke-width:2.5;stroke-linecap:round;stroke-linejoin:round;stroke-miterlimit:10;" d="
				M440.651,391.836c0,0,0.148-14.966,1.503-19.522c1.354-4.556,20.918-25.473,32.354-28.784
				C474.508,343.53,457.207,375.282,440.651,391.836z"/>
			
				<path style="fill:#9ABAE3;stroke:#263238;stroke-width:2.5;stroke-linecap:round;stroke-linejoin:round;stroke-miterlimit:10;" d="
				M432.243,390.835c0,0-12.086-16.833-13.047-31.407c-0.961-14.573-0.277-39.519-0.277-39.519s16.951,24.948,18.463,37.821
				C438.893,370.604,432.243,390.835,432.243,390.835z"/>
			<path style="fill:none;stroke:#263238;stroke-width:2.5;stroke-linecap:round;stroke-linejoin:round;stroke-miterlimit:10;" d="
				M421.632,413.624c3.075,2.725,10.228,12.172,10.739,12.814c0.511,0.641,0.511,5.751,0.511,5.751"/>
			<path style="fill:none;stroke:#263238;stroke-width:2.5;stroke-linecap:round;stroke-linejoin:round;stroke-miterlimit:10;" d="
				M432.243,390.835c0,4.694,0,41.353,0,41.353"/>
			<path style="fill:none;stroke:#263238;stroke-width:2.5;stroke-linecap:round;stroke-linejoin:round;stroke-miterlimit:10;" d="
				M440.666,390.835c-2.292,4.439-6.763,25.39-6.89,28.069c-0.128,2.68-0.057,13.284-0.057,13.284"/>
			<path style="fill:none;stroke:#263238;stroke-width:2.5;stroke-linecap:round;stroke-linejoin:round;stroke-miterlimit:10;" d="
				M438.97,413.497c-2.174,2.526-5.271,9.361-5.271,10.514c0,1.153,0,8.178,0,8.178"/>
		</g>
		<g>
			<path style="fill:#EC644E;" d="M449.208,452.144c-1.905,10.908-5.192,17.31-5.192,17.31h-23.541c0,0-3.287-6.402-5.192-17.31
				c-1.905-10.908-1.39-26.742-1.39-26.742h36.697C450.59,425.402,451.113,441.236,449.208,452.144z"/>
			<path style="fill:#FFFFFF;" d="M449.208,452.144c-1.905,10.908-5.192,17.31-5.192,17.31h-4.154c0,0,3.287-6.402,5.192-17.31
				c1.905-10.908,1.382-26.742,1.382-26.742h4.154C450.59,425.402,451.113,441.236,449.208,452.144z"/>
			<path style="fill:none;stroke:#263238;stroke-width:2.5;stroke-linecap:round;stroke-linejoin:round;stroke-miterlimit:10;" d="
				M449.208,452.144c-1.905,10.908-5.192,17.31-5.192,17.31h-23.541c0,0-3.287-6.402-5.192-17.31
				c-1.905-10.908-1.39-26.742-1.39-26.742h36.697C450.59,425.402,451.113,441.236,449.208,452.144z"/>
		</g>
	</g>
</g>
<g id="Speech_Bubble">
	<g>
		
			<path style="fill:#FFFFFF;stroke:#263238;stroke-width:2.5;stroke-linecap:round;stroke-linejoin:round;stroke-miterlimit:10;" d="
			M85.143,97.461c15.181-5.812,35.149-4.213,47.949,6.396c11.399,9.441,15.127,26.508,9.728,40.125
			c-6.44,16.24-25.007,25.097-41.823,22.286c-1.114-0.189,0.971,7.615,5.821,12.001c1.904,1.722,3.809,3.341,6.045,4.482
			c-10.339-0.808-20.444-5.192-23.202-16.312c-12.325-3.853-30.496-15.172-30.963-31.331
			C58.204,118.319,69.81,103.318,85.143,97.461z"/>
		<g>
			<path style="fill:#9ABAE3;" d="M113.976,117.65v1.394h-4.326v-1.201c0-4.467-3.621-8.089-8.089-8.089l0,0
				c-4.467,0-8.089,3.621-8.089,8.089v10.147h-4.326V117.65c0-6.856,5.558-12.414,12.414-12.414l0,0
				C108.418,105.235,113.976,110.794,113.976,117.65z"/>
			<rect x="86.792" y="124.346" style="fill:#EC644E;" width="30.353" height="25.095"/>
			<g>
				<path style="fill:#263238;" d="M105.292,134.283c0,1.835-1.488,3.323-3.323,3.323c-1.835,0-3.323-1.488-3.323-3.323
					s1.488-3.323,3.323-3.323C103.804,130.96,105.292,132.448,105.292,134.283z"/>
				<rect x="100.268" y="134.758" style="fill:#263238;" width="3.402" height="8.041"/>
			</g>
		</g>
	</g>
</g>
<g id="Character">
	<g>
		<g>
			<path style="fill:#9ABAE3;" d="M63.855,469.21c0,0-29.626-15.314-33.935-86.585c-3.161-52.283,27.471-130.643,82.414-131.542
				c67.863-1.111,88.34,76.868,88.34,76.868s146.514,29.441,97.497,141.259H63.855z"/>
			<path style="fill:#FFFFFF;" d="M298.168,469.213h-8.12c46.085-109.966-98.46-139.016-98.46-139.016s-20.475-77.978-88.339-76.864
				c-2.766,0.044-5.47,0.286-8.113,0.711c5.429-1.832,11.166-2.857,17.197-2.96c67.864-1.114,88.339,76.864,88.339,76.864
				S347.19,357.394,298.168,469.213z"/>
			<path style="fill:none;stroke:#263238;stroke-width:2.5;stroke-linecap:round;stroke-linejoin:round;stroke-miterlimit:10;" d="
				M63.855,469.21c0,0-29.626-15.314-33.935-86.585c-3.161-52.283,27.471-130.643,82.414-131.542
				c67.863-1.111,88.34,76.868,88.34,76.868s146.514,29.441,97.497,141.259H63.855z"/>
		</g>
		<path style="fill:none;stroke:#FFFFFF;stroke-width:2.5;stroke-linecap:round;stroke-linejoin:round;stroke-miterlimit:10;" d="
			M69.102,332.227c0,0,37.753,19.954,47.305,69.877c0,0,47.765-30.672,104.598,16.283"/>
		<path style="fill:none;stroke:#FFFFFF;stroke-width:2.5;stroke-linecap:round;stroke-linejoin:round;stroke-miterlimit:10;" d="
			M172.403,308.931c0,0,13.223,16.042,10.387,33.287c0,0,27.293-7.025,43.649,8.899"/>
		<path style="fill:none;stroke:#FFFFFF;stroke-width:2.5;stroke-linecap:round;stroke-linejoin:round;stroke-miterlimit:10;" d="
			M258.788,383.311c0,0-4.871,10.713-1.705,27.959"/>
	</g>
	<g>
		<g>
			<g>
				<g>
					
						<polygon style="fill:#FCD8C3;stroke:#263238;stroke-width:2.5;stroke-linecap:round;stroke-linejoin:round;stroke-miterlimit:10;" points="
						277.575,431.171 283.911,455.021 234.295,454.976 225.382,431.125 					"/>
				</g>
				<g>
					
						<polygon style="fill:#FFFFFF;stroke:#263238;stroke-width:2.5;stroke-linecap:round;stroke-linejoin:round;stroke-miterlimit:10;" points="
						234.3,454.978 234.318,474.85 306.729,474.914 283.911,455.022 281.301,445.193 230.618,445.148 					"/>
					
						<line style="fill:none;stroke:#263238;stroke-width:2.5;stroke-linecap:round;stroke-linejoin:round;stroke-miterlimit:10;" x1="232.771" y1="450.897" x2="263.09" y2="450.924"/>
				</g>
			</g>
			<g>
				<path style="fill:#263238;" d="M278.049,434.565l2.74,6.426c0,0,5.545-1.442,6.127-3.376
					C287.498,435.681,282.719,433.054,278.049,434.565z"/>
				<g>
					<g>
						<g>
							
								<polygon style="fill:#FCD8C3;stroke:#263238;stroke-width:2.5;stroke-linecap:round;stroke-linejoin:round;stroke-miterlimit:10;" points="
								156.621,382.026 132.039,385.755 137.236,336.841 162.088,330.572 							"/>
						</g>
						<g>
							
								<polygon style="fill:#FFFFFF;stroke:#263238;stroke-width:2.5;stroke-linecap:round;stroke-linejoin:round;stroke-miterlimit:10;" points="
								137.234,336.846 117.298,334.764 109.714,406.151 132.038,385.754 142.168,384.219 147.477,334.253 							"/>
							
								<line style="fill:none;stroke:#263238;stroke-width:2.5;stroke-linecap:round;stroke-linejoin:round;stroke-miterlimit:10;" x1="141.487" y1="335.769" x2="138.311" y2="365.659"/>
						</g>
					</g>
					<g>
						<path style="fill:#EC644E;" d="M132.529,310.884l52.045-6.421l5.542,3.64c0,0,56.842-16.253,78.158-2.935
							c17.252,10.779,19.666,38.525,9.927,49.005"/>
						<path style="fill:#FFFFFF;" d="M278.2,354.169l-6.4-1.908c9.443-14.601,4.623-35.575-11.507-45.655
							c-11.95-7.47-32.873-6.037-50.883-2.977c18.52-3.58,45.58-6.76,58.86,1.54C285.53,315.949,287.94,343.689,278.2,354.169z"/>
						<path style="fill:#EC644E;" d="M209.39,303.629c-11.2,2.16-19.27,4.47-19.27,4.47l-0.51-0.33
							C194.15,306.639,201.24,305.009,209.39,303.629z"/>
						
							<path style="fill:none;stroke:#263238;stroke-width:2.5;stroke-linecap:round;stroke-linejoin:round;stroke-miterlimit:10;" d="
							M132.529,310.884l52.045-6.421l5.542,3.64c0,0,56.842-16.253,78.158-2.935c17.252,10.779,19.666,38.525,9.927,49.005"/>
					</g>
					<g>
						<path style="fill:#EC644E;" d="M239.794,306.661c-25.019-2.466-61.192,17.419-61.192,17.419
							c-10.355,0.087-14.028,3.669-14.028,3.669s-11.771,8.35-15.183,24.542c-2.99,14.191,1.579,33.232-3.967,34.333
							c-1.848,0.367-3.223-3.516-3.223-3.516s0.871,6.863,6.125,9.013c3.244,1.328,8.981-0.321,14.56-2.143
							c5.579-1.822,64.628-6.481,98.688-23.653c5.659-2.853,15.167-9.203,18.51-14.644"/>
						<path style="fill:#FFFFFF;" d="M280.08,351.679c-3.34,5.44-12.85,11.79-18.51,14.65c-34.06,17.17-93.11,21.83-98.68,23.65
							c-5.58,1.82-11.32,3.47-14.56,2.14c-1.4-0.58-2.49-1.48-3.33-2.51c3.34,0.68,9.294-3.292,14.294-4.922
							c5.58-1.82,63.354-7.454,90.706-19.592c10.177-4.516,18.69-8.563,24.901-19.193L280.08,351.679z"/>
						
							<path style="fill:none;stroke:#263238;stroke-width:2.5;stroke-linecap:round;stroke-linejoin:round;stroke-miterlimit:10;" d="
							M239.794,306.661c-25.019-2.466-61.192,17.419-61.192,17.419c-10.355,0.087-14.028,3.669-14.028,3.669
							s-11.771,8.35-15.183,24.542c-2.99,14.191,1.579,33.232-3.967,34.333c-1.848,0.367-3.223-3.516-3.223-3.516
							s0.871,6.863,6.125,9.013c3.244,1.328,8.981-0.321,14.56-2.143c5.579-1.822,64.628-6.481,98.688-23.653
							c5.659-2.853,15.167-9.203,18.51-14.644"/>
						<path style="fill:#263238;" d="M141.588,382.344c0,0-0.171,6.144,3.837,4.28c3.257-1.514,3.086-6.271,3.086-6.271
							L141.588,382.344z"/>
					</g>
				</g>
				<g>
					<path style="fill:#EC644E;" d="M156.845,307.879l-60.633,7.629c-6.7,37.197,1.983,56.667,17.232,63.828
						c18.848,8.851,72.506-3.696,72.506-3.696c9.57,47.211,35.913,69.326,35.913,69.326s17.913,6.271,38.123-3.168
						c21.153-9.879,23.095-9.894,25.616-4.147c0.01,0.023,1.327-4.027-1.06-10.217c-8.411-21.807-24.608-81.707-47.026-100.385
						c-14.303-11.917-69.392-11.252-69.392-11.252"/>
					<path style="fill:#FFFFFF;" d="M285.6,437.649c-1.58-3.61-2.94-4.95-8.96-2.99c0.01-1.77-0.29-4.25-1.43-7.23
						c-8.42-21.8-24.61-81.7-47.03-100.38c-14.3-11.92-69.39-11.25-69.39-11.25l-9.86-6.92l7.92-1l11.27,7.92
						c0,0,55.09-0.67,69.39,11.25c22.42,18.68,38.62,78.58,47.03,100.38C286.93,433.629,285.61,437.679,285.6,437.649z"/>
					
						<path style="fill:none;stroke:#263238;stroke-width:2.5;stroke-linecap:round;stroke-linejoin:round;stroke-miterlimit:10;" d="
						M156.845,307.879l-60.633,7.629c-6.7,37.197,1.983,56.667,17.232,63.828c18.848,8.851,72.506-3.696,72.506-3.696
						c9.57,47.211,35.913,69.326,35.913,69.326s17.913,6.271,38.123-3.168c21.153-9.879,23.095-9.894,25.616-4.147
						c0.01,0.023,1.327-4.027-1.06-10.217c-8.411-21.807-24.608-81.707-47.026-100.385c-14.303-11.917-69.392-11.252-69.392-11.252"
						/>
					
						<path style="fill:none;stroke:#263238;stroke-width:2.5;stroke-linecap:round;stroke-linejoin:round;stroke-miterlimit:10;" d="
						M102.653,320.686c0,0-4.441,37.825,9.312,47.66c13.753,9.834,67.77-1.091,67.77-1.091l7.519-3.407l-0.718,5.569l7.254-2.966
						c0,0,2.467,16.442,12.654,40.727c6.96,16.593,18.554,28.715,18.554,28.715"/>
				</g>
			</g>
		</g>
		<g>
			<g>
				<path style="fill:#263238;" d="M58.402,258.942c-1.406-2.501,2.372-4.764,3.807-2.212
					C63.729,259.435,59.94,261.679,58.402,258.942z"/>
				<path style="fill:#263238;" d="M44.145,256.777c1.348-2.053,2.963-0.155,6.209,0.722c2.704,0.73,5.992-0.12,6.545,1.684
					c0.574,1.871-1.331,4.221-6.528,3.379C45.988,261.85,42.739,258.917,44.145,256.777z"/>
				<path style="fill:#263238;" d="M128.36,203.313c-3.023,2.204-7.055-1.351-9.608,2.957c-2.553,4.307-5.391,14.838-15.207,17.529
					c-9.816,2.69-21.478-2.163-27.467,12.696c-6.384,15.84-23.081,22.398-33.197,13.483c-10.173-8.965,1.044-33.477,19.669-38.5
					c15.586-4.204,27.312,3.798,38.141,1.089c8.51-2.129,11.082-14.137,18.553-15.769
					C126.715,195.166,131.692,200.883,128.36,203.313z"/>
				
					<path style="fill:#EC644E;stroke:#263238;stroke-width:2.5;stroke-linecap:round;stroke-linejoin:round;stroke-miterlimit:10;" d="
					M123.446,201.333c-0.422,2.332,1.126,4.565,3.458,4.987c2.332,0.422,4.565-1.126,4.987-3.458
					c0.422-2.332-1.126-4.565-3.458-4.987C126.101,197.453,123.868,199.001,123.446,201.333z"/>
			</g>
			<g>
				<g>
					
						<path style="fill:#FCD8C3;stroke:#263238;stroke-width:2.5;stroke-linecap:round;stroke-linejoin:round;stroke-miterlimit:10;" d="
						M257.753,239.225c3.03,6.115-24.594,14.341-24.594,14.341l-7.848-8.632C225.311,244.934,254.926,233.52,257.753,239.225z"/>
					<g>
						
							<path style="fill:#FCD8C3;stroke:#263238;stroke-width:2.5;stroke-linecap:round;stroke-linejoin:round;stroke-miterlimit:10;" d="
							M185.579,290.183c-11.774-0.396-41.633-24.078-47.941-41.471c-5.063-13.955,4.34-36.204,26.025-18.788
							c10.258,8.236,24.106,20.951,26.043,21.24c2.409,0.359,13.362-3.36,18.531-4.901c5.469-3.498,13.689-6.771,19.53-5.955
							c3.321,0.459,17.688,11.607,17.058,16.991c-0.281,2.393-8.635,8.574-17.517,13.93
							C212.823,279.963,196.632,290.554,185.579,290.183z"/>
					</g>
					<g>
						<g>
							
								<path style="fill:#EC644E;stroke:#263238;stroke-width:2.5;stroke-linecap:round;stroke-linejoin:round;stroke-miterlimit:10;" d="
								M236.845,224.501l-20.142,30.781c-0.554,0.847-0.262,1.714,0.65,1.928l16.347,3.834c0.913,0.214,2.107-0.305,2.661-1.151
								l20.141-30.781c0.557-0.85,0.267-1.713-0.646-1.927l-16.348-3.834C238.596,223.136,237.401,223.65,236.845,224.501z"/>
							<path style="fill:#FFFFFF;" d="M236.994,226.682L219.839,252.9c-0.485,0.74-0.271,1.482,0.478,1.658l12.113,2.848
								c0.75,0.176,1.749-0.282,2.234-1.022l17.156-26.218c0.988-1.51,0.429-1.726-0.321-1.902l-2.68-0.629
								c-0.156-0.036-0.389,0.096-0.52,0.296l-0.057,0.087c-0.308,0.47-0.589,0.405-0.935,0.324l-4.932-1.164
								c-0.349-0.082-0.627-0.149-0.319-0.619l0.057-0.087c0.131-0.201,0.111-0.392-0.047-0.429l-2.68-0.628
								C238.637,225.241,237.899,225.299,236.994,226.682z"/>
						</g>
					</g>
					
						<path style="fill:#FCD8C3;stroke:#263238;stroke-width:2.5;stroke-linecap:round;stroke-linejoin:round;stroke-miterlimit:10;" d="
						M255.014,251.934c-0.297,5.772-11.923,4.191-12.746-0.36C241.446,247.023,255.379,244.862,255.014,251.934z"/>
					
						<path style="fill:#FCD8C3;stroke:#263238;stroke-width:2.5;stroke-linecap:round;stroke-linejoin:round;stroke-miterlimit:10;" d="
						M250.978,260.064c-0.298,5.772-11.923,4.191-12.746-0.36C237.41,255.153,251.343,252.992,250.978,260.064z"/>
				</g>
				<g>
					
						<path style="fill:#EC644E;stroke:#263238;stroke-width:2.5;stroke-linecap:round;stroke-linejoin:round;stroke-miterlimit:10;" d="
						M162.445,283.8c0,0-1.728-2.438,1.575-7.515c3.303-5.077,8.632-9.885,12.555-17.303c3.923-7.418,6.849-17.03,10.326-16.467
						c0,0-1.395-3.43-9.437-6.017c-2.621-0.843-29.843-26.623-43.15-5.513c-7.767,12.321,2.781,30.364,17.376,41.498
						C159.589,278.51,159.123,283.506,162.445,283.8z"/>
					<path style="fill:#263238;" d="M183.34,245.898l2.796,2.62c0,0,2.455-4.548,1.99-5.795
						C187.66,241.476,184.903,243.787,183.34,245.898z"/>
					<path style="fill:#263238;" d="M163.74,278.96l3.339,2.711c0,0-2.237,2.936-4.01,3.218
						C161.296,285.171,162.552,281.018,163.74,278.96z"/>
				</g>
			</g>
			<g>
				<g>
					
						<path style="fill:#FFFFFF;stroke:#263238;stroke-width:2.5;stroke-linecap:round;stroke-linejoin:round;stroke-miterlimit:10;" d="
						M146.036,222.958c-13.107,2.013-28.279-0.163-39.541,8.389c-15.073,11.446-13.757,36.946-12.21,63.723
						c0.195,3.376-7.702,22.871-9.596,36.853c-0.827,6.104,3.703,9.191,3.703,9.191c4.314-15.243,37.572-3.233,67.761-9.83
						c16.231-3.547,38.343-27.255,41.243-25.329c0,0,6.581-2.418-0.974-11.975c-6.621-8.375-13.22-22.407-13.22-22.407
						s3.996-6.693-1.133-14.402C170.216,239.354,157.018,221.272,146.036,222.958z"/>
				</g>
				<path style="fill:#263238;" d="M87.791,341.358c0.689-4.587,6.497-7.231,6.497-7.231l-0.561,8.446
					C93.727,342.573,87.451,343.624,87.791,341.358z"/>
				<path style="fill:none;stroke:#263238;stroke-width:2.5;stroke-linecap:round;stroke-linejoin:round;stroke-miterlimit:10;" d="
					M178.453,271.828c0,0-11.634-0.18-20.661,2.459"/>
				<path style="fill:none;stroke:#263238;stroke-width:2.5;stroke-linecap:round;stroke-linejoin:round;stroke-miterlimit:10;" d="
					M169.578,275.869c0,0-7.709,1.719-10.827,4.111"/>
			</g>
			<g>
				
					<path style="fill:#EC644E;stroke:#263238;stroke-width:2.5;stroke-linecap:round;stroke-linejoin:round;stroke-miterlimit:10;" d="
					M133.783,220.867c-8.849,4.357,1.269,15.13,9.997,13.058C152.876,231.765,144.398,215.64,133.783,220.867z"/>
				<path style="fill:#263238;" d="M142.343,225.714c0,0,3.746,5.081,0.769,5.821c-4.668,1.16-11.447-5.994-11.447-5.994
					L142.343,225.714z"/>
				<g>
					<g>
						<path style="fill:#FCD8C3;" d="M149.348,208.762c2.7,7.587-0.335,15.56-6.779,17.808c-6.445,2.248-13.858-2.081-16.559-9.669
							c-2.701-7.587,0.334-15.56,6.779-17.808C139.233,196.846,146.647,201.175,149.348,208.762z"/>
						<path style="fill:#FFFFFF;" d="M149.352,208.759c-2.707-7.587-10.121-11.91-16.559-9.661
							c-0.238,0.085-0.466,0.171-0.695,0.267c5.459-0.047,10.898,4.003,13.127,10.268c2.602,7.297-0.119,14.953-6.057,17.531
							c1.143-0.016,2.294-0.211,3.4-0.599C149.016,224.318,152.049,216.346,149.352,208.759z"/>
						
							<path style="fill:none;stroke:#263238;stroke-width:2.5;stroke-linecap:round;stroke-linejoin:round;stroke-miterlimit:10;" d="
							M149.348,208.762c2.7,7.587-0.335,15.56-6.779,17.808c-6.445,2.248-13.858-2.081-16.559-9.669
							c-2.701-7.587,0.334-15.56,6.779-17.808C139.233,196.846,146.647,201.175,149.348,208.762z"/>
					</g>
				</g>
				<path style="fill:#263238;" d="M142.344,201.113c0,0-0.567,17.414-16.598,17.898c0,0-4.698-12.574,3.611-17.662
					C135.223,197.756,142.344,201.113,142.344,201.113z"/>
			</g>
			<g>
				<g>
					<g>
						
							<path style="fill:#FCD8C3;stroke:#263238;stroke-width:2.5;stroke-linecap:round;stroke-linejoin:round;stroke-miterlimit:10;" d="
							M112.219,232.491c18.888-7.902,39.799,27.122,43.877,27.525c2.974,0.292,22.296-5.707,32.877-8.877
							c0,0,4.611-1.946,16.288-8.759c2.635-1.534,31.661-9.291,33.209-4.334c1.823,5.832-13.451,8.589-13.725,9.663
							c0,0,2.787,1.215,3.905,3.804c1.365,3.131-0.158,4.962-0.158,4.962c3.061,2.842,1.353,8.249-1.024,10.005
							c-1.783,1.326-6.437,3.021-6.437,3.021c-6.411,7.391-10.473,7.633-10.473,7.633s-43.046,24.873-56.123,25.355
							c-12.764,0.463-35.093-20.905-45.826-31.428C101.556,264.146,94.329,239.976,112.219,232.491z"/>
						
							<path style="fill:none;stroke:#263238;stroke-width:2.5;stroke-linecap:round;stroke-linejoin:round;stroke-miterlimit:10;" d="
							M228.258,256.937c-3.687,0.161-10.093,2.511-10.093,2.511"/>
						
							<path style="fill:none;stroke:#263238;stroke-width:2.5;stroke-linecap:round;stroke-linejoin:round;stroke-miterlimit:10;" d="
							M224.741,247.71c-3.329,0.128-9.567,2.299-9.567,2.299"/>
						
							<path style="fill:none;stroke:#263238;stroke-width:2.5;stroke-linecap:round;stroke-linejoin:round;stroke-miterlimit:10;" d="
							M236.671,239.046c0,0-5.331,3.378-8.771-0.178"/>
					</g>
				</g>
				<g>
					
						<path style="fill:#EC644E;stroke:#263238;stroke-width:2.5;stroke-linecap:round;stroke-linejoin:round;stroke-miterlimit:10;" d="
						M127.015,293.281c0,0-1.561-2.645,2.259-7.563c3.819-4.918,9.691-9.386,14.347-16.649c4.655-7.262,8.477-16.858,11.991-15.984
						c0,0-1.135-3.634-9.152-6.973c-2.613-1.088-28.287-29.834-43.731-9.35c-9.014,11.956,0.243,31.344,14.239,44.003
						C124.543,287.616,123.636,292.694,127.015,293.281z"/>
					<path style="fill:#263238;" d="M151.672,256.246l2.64,2.924c0,0,2.906-4.448,2.535-5.766
						C156.477,252.087,153.454,254.217,151.672,256.246z"/>
					<path style="fill:#263238;" d="M128.757,288.433l3.188,3.064c0,0-2.543,2.815-4.384,2.952
						C125.72,294.586,127.363,290.44,128.757,288.433z"/>
				</g>
			</g>
		</g>
	</g>
</g>
</svg>
